<svg width="2500" height="200" viewBox="0 0 2500 200" fill="none" xmlns="http://www.w3.org/2000/svg">
<g clip-path="url(#clip0_235_331)">
<mask id="mask0_235_331" style="mask-type:luminance" maskUnits="userSpaceOnUse" x="0" y="0" width="2500" height="200">
<path d="M2500 0H0V200H2500V0Z" fill="white"/>
</mask>
<g mask="url(#mask0_235_331)">
<path d="M2500 0H0V200H2500V0Z" fill="#E2E5E9"/>
<path d="M0.00012207 989.837C182.946 988.386 318.85 833.859 478.716 744.897C651.428 648.787 918.845 635.081 976.979 446.171C1037.13 250.724 769.484 95.9598 740.72 -106.499C711.874 -309.534 919.951 -529.608 813.449 -704.858C710.529 -874.215 458.492 -865.022 262.386 -893.606C88.6471 -918.93 -83.4439 -907.32 -252.59 -860.242C-423.738 -812.607 -586.594 -741.977 -716.765 -621.08C-857.214 -490.638 -984.466 -334.973 -1020.8 -146.769C-1057.89 45.3619 -1017.91 251.046 -917.562 419.037C-822.077 578.89 -641.724 654.174 -483.62 752.528C-327.994 849.34 -183.275 991.29 0.00012207 989.837Z" fill="#AEB6C1"/>
<path d="M2500 942.466C2639.35 935.222 2769.2 876.746 2883.22 796.307C2993.77 718.324 3081.54 614.294 3138.88 491.767C3196.6 368.433 3222.19 233.539 3210.07 97.907C3197.5 -42.904 3173.59 -197.969 3068.8 -292.867C2966.07 -385.903 2807.37 -355.323 2672.84 -388.625C2545.59 -420.123 2428.5 -505.804 2299.36 -483.326C2165.03 -459.947 2048.85 -371.222 1963.23 -265.117C1879.28 -161.083 1856.05 -27.179 1826.12 103.111C1793.56 244.912 1731.75 391.455 1780.99 528.361C1831.35 668.366 1961.36 763.27 2090.29 837.526C2214.98 909.341 2356.3 949.936 2500 942.466Z" fill="white"/>
</g>
</g>
<defs>
<clipPath id="clip0_235_331">
<rect width="2500" height="200" fill="white"/>
</clipPath>
</defs>
</svg>
