<svg width="2500" height="200" viewBox="0 0 2500 200" fill="none" xmlns="http://www.w3.org/2000/svg">
<g clip-path="url(#clip0_234_315)">
<mask id="mask0_234_315" style="mask-type:luminance" maskUnits="userSpaceOnUse" x="0" y="0" width="2500" height="200">
<path d="M2500 0H0V200H2500V0Z" fill="white"/>
</mask>
<g mask="url(#mask0_234_315)">
<path d="M2500 0H0V200H2500V0Z" fill="#55131E"/>
<path d="M0.000183105 720.879C140.485 748.316 296.774 726.272 413.538 643.478C528.751 561.783 569.993 415.096 618.378 282.404C663.411 158.904 706.041 31.2499 684.04 -98.3502C662.322 -226.282 585.89 -336.099 497.287 -430.902C411.126 -523.092 306.569 -596.189 185.505 -631.771C64.4202 -667.359 -65.4148 -670.563 -185.444 -631.563C-303.534 -593.193 -387.144 -498.439 -479.672 -415.638C-586.097 -320.401 -725.557 -246.813 -767.83 -110.397C-811.947 31.9698 -796.778 203.395 -708.775 323.687C-623.263 440.574 -447.647 429.162 -321.306 499.963C-205.577 564.817 -130.202 695.45 0.000183105 720.879Z" fill="#751F2C"/>
<path d="M2500 1305.16C2721.05 1329.67 2963.43 1332.2 3146.02 1205.23C3326.99 1079.37 3391.69 847.897 3459.25 638.075C3520.47 447.946 3533.83 252.823 3516.77 53.8099C3498.82 -155.685 3477.58 -370.513 3358 -543.461C3231.33 -726.66 3052.18 -894.063 2833.21 -934.817C2619.34 -974.624 2422.31 -834.026 2219.48 -755.363C2034.63 -683.674 1829.54 -643.281 1698.31 -494.669C1566.57 -345.48 1549.51 -136.818 1502.49 56.5798C1450.35 271.101 1320.86 495.851 1408.24 698.589C1495.7 901.493 1746.79 964.182 1939.93 1071.49C2120.41 1171.76 2294.79 1282.4 2500 1305.16Z" fill="#C46C7B"/>
</g>
</g>
<defs>
<clipPath id="clip0_234_315">
<rect width="2500" height="200" fill="white"/>
</clipPath>
</defs>
</svg>
